<svg xmlns="http://www.w3.org/2000/svg" width="32" height="32" version="1.0" id="game"><path d="M17.316 0a15.98 15.98 0 0 0-6.593 1.438 16 16 0 0 0 2.556 30.035 16.006 16.006 0 0 0 17.284-6.446.5.5 0 0 0-.131-.695l-12.291-8.4L28.836 5.576a.5.5 0 0 0 .012-.707A16.002 16.002 0 0 0 17.316 0zm-.06 1.002C21.092.99 24.852 2.49 27.725 5.26L17.004 15.64a.5.5 0 0 0 .066.772l12.319 8.42c-3.635 4.945-9.886 7.245-15.856 5.674A14.997 14.997 0 0 1 2.404 17.27 14.997 14.997 0 0 1 11.14 2.348a14.992 14.992 0 0 1 4.47-1.248 14.56 14.56 0 0 1 1.647-.098zm3.713 3.13c-1.127 0-2.051.925-2.051 2.052 0 1.126.924 2.048 2.05 2.048 1.127 0 2.052-.922 2.052-2.048 0-1.127-.925-2.051-2.051-2.051zm0 1c.586 0 1.05.466 1.05 1.052 0 .585-.464 1.048-1.05 1.048-.586 0-1.051-.463-1.051-1.048 0-.586.465-1.051 1.05-1.051z" color="#000" font-family="sans-serif" font-weight="900" overflow="visible" style="line-height:normal;text-indent:0;text-align:start;text-decoration-line:none;text-decoration-style:solid;text-decoration-color:#000;text-transform:none;block-progression:tb;white-space:normal;isolation:auto;mix-blend-mode:normal;solid-color:#000;solid-opacity:1"></path></svg>