<?xml version="1.0" standalone="no"?>
<!DOCTYPE svg PUBLIC "-//W3C//DTD SVG 20010904//EN"
 "http://www.w3.org/TR/2001/REC-SVG-20010904/DTD/svg10.dtd">
<svg version="1.0" xmlns="http://www.w3.org/2000/svg"
 width="240.000000pt" height="240.000000pt" viewBox="0 0 240.000000 240.000000"
 preserveAspectRatio="xMidYMid meet">
<metadata>
Created by potrace 1.14, written by Peter Selinger 2001-2017
</metadata>
<g transform="translate(0.000000,240.000000) scale(0.100000,-0.100000)"
fill="#000000" stroke="none">
<path d="M1374 2381 c-207 -50 -368 -199 -441 -408 -24 -70 -27 -93 -28 -213
0 -162 9 -204 74 -345 108 -232 339 -426 584 -490 105 -28 259 -31 353 -7 164
41 302 137 381 264 82 132 99 198 97 378 0 88 -5 121 -32 205 -80 255 -297
491 -533 579 -149 56 -320 69 -455 37z m254 -280 c75 -38 123 -118 124 -206 1
-111 25 -137 131 -142 123 -6 202 -64 234 -172 40 -139 -39 -303 -184 -376
-50 -26 -69 -30 -138 -30 -92 0 -143 21 -190 77 -41 48 -57 94 -59 171 -2 59
-6 72 -29 94 -23 23 -35 27 -96 29 -122 4 -202 60 -237 168 -52 154 65 352
238 405 49 15 160 6 206 -18z"/>
<path d="M442 727 l-443 -443 143 -142 142 -143 106 106 105 105 106 -106 105
-105 71 72 70 71 -70 70 -69 70 33 34 c18 19 35 34 37 34 2 0 32 -29 67 -65
35 -36 68 -65 72 -65 4 0 38 30 75 67 l68 68 -105 105 -105 105 161 163 161
162 -54 41 c-62 49 -165 153 -199 203 -13 20 -26 36 -29 36 -3 0 -204 -199
-448 -443z"/>
</g>
</svg>
